<?xml version="1.0" encoding="UTF-8"?>
<!DOCTYPE svg PUBLIC "-//W3C//DTD SVG 1.1//EN" "http://www.w3.org/Graphics/SVG/1.1/DTD/svg11.dtd">
<svg xmlns="http://www.w3.org/2000/svg" version="1.1" width="200px" height="62px"
     style="shape-rendering:geometricPrecision; text-rendering:geometricPrecision; image-rendering:optimizeQuality; fill-rule:evenodd; clip-rule:evenodd"
     xmlns:xlink="http://www.w3.org/1999/xlink">
    <g>
        <path style="opacity:0.799" fill="#96defb"
              d="M 22.5,8.5 C 22.5,9.83333 22.5,11.1667 22.5,12.5C 19.4707,14.0503 17.804,16.5503 17.5,20C 19.0818,23.4117 20.4152,26.9117 21.5,30.5C 21.1667,31.8333 20.8333,33.1667 20.5,34.5C 19.8333,34.5 19.5,34.8333 19.5,35.5C 19.5465,38.9686 20.2132,42.302 21.5,45.5C 19.9485,51.2322 16.2818,54.0656 10.5,54C 9.19551,53.196 8.52884,52.0293 8.5,50.5C 11.8553,46.4668 14.8553,42.1335 17.5,37.5C 13.348,32.3616 10.6814,26.5283 9.5,20C 9.73681,14.5257 12.0701,10.1924 16.5,7C 18.6951,6.5906 20.6951,7.0906 22.5,8.5 Z"/>
    </g>
    <g>
        <path style="opacity:0.824" fill="#162b3f"
              d="M 21.5,45.5 C 20.2132,42.302 19.5465,38.9686 19.5,35.5C 20.1667,35.5 20.5,35.1667 20.5,34.5C 20.8333,33.1667 21.1667,31.8333 21.5,30.5C 24.1188,27.4382 26.1188,23.9382 27.5,20C 26.6894,16.8646 25.0228,14.3646 22.5,12.5C 22.5,11.1667 22.5,9.83333 22.5,8.5C 24.623,6.07872 26.9564,5.91205 29.5,8C 34.2019,12.9218 35.7019,18.7552 34,25.5C 31.8164,29.6765 29.6497,33.8432 27.5,38C 29.5489,42.8775 32.5489,47.0442 36.5,50.5C 35.4612,54.1493 33.1279,55.316 29.5,54C 26.6007,51.2709 23.934,48.4376 21.5,45.5 Z"/>
    </g>
    <g>
        <path style="opacity:0.662" fill="#97dffb"
              d="M 156.5,6.5 C 159.187,6.33591 161.854,6.50258 164.5,7C 165.435,9.3806 165.768,11.8806 165.5,14.5C 162.5,14.5 159.5,14.5 156.5,14.5C 156.5,11.8333 156.5,9.16667 156.5,6.5 Z"/>
    </g>
    <g>
        <path style="opacity:0.837" fill="#162b3f"
              d="M 58.5,16.5 C 66.7964,15.1577 71.7964,18.491 73.5,26.5C 70.7531,26.8134 68.0865,26.48 65.5,25.5C 63.213,22.9538 60.5463,22.2872 57.5,23.5C 57.33,24.8221 57.6634,25.9887 58.5,27C 62.5796,27.6866 66.5796,28.6866 70.5,30C 72.0488,31.214 73.2155,32.714 74,34.5C 74.4994,28.8431 74.6661,23.1764 74.5,17.5C 77.7107,17.012 80.544,17.6787 83,19.5C 93.0256,14.5211 99.6923,17.5211 103,28.5C 106.17,17.9977 113.003,14.4977 123.5,18C 128.976,22.1236 131.309,27.6236 130.5,34.5C 124.132,34.1703 117.798,34.5037 111.5,35.5C 114.575,40.1231 118.242,40.6231 122.5,37C 131.592,35.238 132.925,37.5714 126.5,44C 118.379,48.1754 111.212,47.0087 105,40.5C 104.027,38.6079 103.36,36.6079 103,34.5C 100.264,45.4508 93.7638,48.7842 83.5,44.5C 82.513,47.7683 82.1796,51.1016 82.5,54.5C 79.8333,54.5 77.1667,54.5 74.5,54.5C 74.6659,49.4889 74.4993,44.4889 74,39.5C 71.7715,44.6219 67.7715,46.9552 62,46.5C 54.6669,46.9227 50.1669,43.5893 48.5,36.5C 49.8333,36.1667 51.1667,35.8333 52.5,35.5C 55.7613,36.9137 58.9279,38.5803 62,40.5C 66.149,40.2336 66.9823,38.7336 64.5,36C 60.7894,35.1557 57.1228,34.1557 53.5,33C 48.8341,28.9944 48.3341,24.4944 52,19.5C 54.166,18.2685 56.3326,17.2685 58.5,16.5 Z M 86.5,23.5 C 91.4313,23.7642 94.0979,26.4309 94.5,31.5C 94.4041,35.7255 92.4041,38.3921 88.5,39.5C 84.5893,38.3724 82.5893,35.7058 82.5,31.5C 82.7821,28.2691 84.1154,25.6024 86.5,23.5 Z M 114.5,23.5 C 118.497,22.668 121.164,24.168 122.5,28C 118.789,28.8253 115.122,28.6586 111.5,27.5C 112.524,26.1482 113.524,24.8149 114.5,23.5 Z"/>
    </g>
    <g>
        <path style="opacity:0.811" fill="#162b3f"
              d="M 156.5,34.5 C 156.5,36.5 156.5,38.5 156.5,40.5C 152.266,46.0931 146.599,47.9265 139.5,46C 133.613,44.9468 130.946,41.4468 131.5,35.5C 133.857,35.3367 136.19,35.5034 138.5,36C 141.051,41.0437 144.384,41.7103 148.5,38C 148.095,37.0546 147.428,36.3879 146.5,36C 141.4,35.4438 136.9,33.6104 133,30.5C 130.462,21.5187 133.962,16.8521 143.5,16.5C 150.405,16.5893 154.405,19.9226 155.5,26.5C 151.06,26.7236 147.06,25.7236 143.5,23.5C 141.681,23.3422 140.348,24.0089 139.5,25.5C 143.622,27.4519 147.956,28.9519 152.5,30C 154.07,31.3968 155.404,32.8968 156.5,34.5 Z"/>
    </g>
    <g>
        <path style="opacity:0.823" fill="#97dffb"
              d="M 156.5,40.5 C 156.5,38.5 156.5,36.5 156.5,34.5C 156.5,28.8333 156.5,23.1667 156.5,17.5C 159.5,17.5 162.5,17.5 165.5,17.5C 165.334,22.8437 165.501,28.1771 166,33.5C 167.167,32.3333 168.333,31.1667 169.5,30C 173.5,29 177.5,28 181.5,27C 182.708,24.355 181.708,23.1884 178.5,23.5C 174.94,25.7236 170.94,26.7236 166.5,26.5C 167.774,19.7569 171.941,16.4236 179,16.5C 183.883,16.4512 187.55,18.4512 190,22.5C 190.268,30.2 190.768,37.8667 191.5,45.5C 188.289,45.988 185.456,45.3213 183,43.5C 178.553,46.9087 173.719,47.4087 168.5,45C 167.299,44.0975 166.465,42.9308 166,41.5C 165.51,42.7932 165.343,44.1266 165.5,45.5C 162.5,45.5 159.5,45.5 156.5,45.5C 156.5,43.8333 156.5,42.1667 156.5,40.5 Z M 181.5,32.5 C 183.242,38.5849 180.908,40.9182 174.5,39.5C 173.167,38.1667 173.167,36.8333 174.5,35.5C 176.885,34.3385 179.219,33.3385 181.5,32.5 Z"/>
    </g>
</svg>
